<?xml version="1.0" encoding="UTF-8"?>
<svg width="32px" height="32px" viewBox="0 0 32 32" version="1.1" xmlns="http://www.w3.org/2000/svg" xmlns:xlink="http://www.w3.org/1999/xlink">
    <title>insta-big</title>
    <defs>
        <linearGradient x1="50%" y1="0%" x2="50%" y2="100%" id="linearGradient-1">
            <stop stop-color="#5F4FA6" offset="0%"></stop>
            <stop stop-color="#C22196" offset="35.1745605%"></stop>
            <stop stop-color="#FC003E" offset="79.7803759%"></stop>
            <stop stop-color="#FFD75E" offset="100%"></stop>
        </linearGradient>
    </defs>
    <g id="About" stroke="none" stroke-width="1" fill="none" fill-rule="evenodd">
        <g id="Artboard" transform="translate(-410.000000, -11.000000)" fill="url(#linearGradient-1)" fill-rule="nonzero">
            <path d="M433.111111,11 L418.888889,11 L418.888889,11 C413.979698,11 410,14.9796976 410,19.8888885 C410,19.8888885 410,19.8888885 410,19.8888885 L410,34.1111101 L410,34.1111115 C410,39.0203024 413.979698,43 418.888889,43 L433.11111,43 L433.11111,43 C438.020301,43 442,39.0203024 442,34.1111115 L442,19.8888899 L442,19.8888899 C442,14.979699 438.020301,11 433.11111,11 C433.111109,11 433.111109,11 433.111108,11 L433.111111,11 Z M438.888888,34.1111112 L438.888888,34.111032 C438.87917,37.2979652 436.298115,39.8790851 433.111182,39.8888807 L418.888889,39.8888807 L418.888889,39.8888807 C415.701956,39.8791198 413.120872,37.2980363 413.111112,34.1111112 L413.111112,19.8888815 L413.111112,19.8889598 C413.120829,16.7020266 415.701885,14.1209067 418.888818,14.1111112 L433.11104,14.1111112 L433.11104,14.1111112 C436.297991,14.1208293 438.879128,16.7019377 438.888888,19.8888887 L438.888888,34.1111112 Z M436.222222,18.5555552 L436.222222,18.5555552 C436.222222,19.5373952 435.426284,20.3333329 434.444444,20.3333329 C433.462604,20.3333329 432.666666,19.5373952 432.666666,18.5555552 C432.666666,17.5737153 433.462604,16.7777775 434.444444,16.7777775 L434.444444,16.7777775 C435.426284,16.7777775 436.222222,17.5737153 436.222222,18.5555552 L436.222222,18.5555552 Z M426,18.9999721 L426,18.9999721 C421.581724,18.9999721 418,22.581724 418,26.9999993 C418,31.4182747 421.581724,34.999999 426,34.999999 C430.418275,34.999999 434.000019,31.4182747 434.000019,26.9999993 L434.000019,26.999849 C434.009746,22.5914048 430.443893,19.0097516 426.035449,18.9999721 C426.023584,18.9999721 426.011719,18.9999721 425.999854,18.9999721 L426,18.9999721 Z M426,31.888888 L426,31.888888 C423.299946,31.888888 421.111111,29.7000525 421.111111,26.9999993 C421.111111,24.2999461 423.299946,22.1111106 426,22.1111106 C428.700053,22.1111106 430.888888,24.2999461 430.888888,26.9999993 L430.888888,26.9999991 C430.888888,29.7000523 428.700053,31.888888 426,31.888888 L426,31.888888 Z" id="insta-big"></path>
        </g>
    </g>
</svg>