<svg height="32" viewBox="0 0 40 32" width="40" xmlns="http://www.w3.org/2000/svg"><path d="m99 168c0-2.20914-1.7908618-4-4-4h-32c-2.20914 0-4 1.790862-4 4v24c0 2.209141 1.790862 4 4 4h32c2.2091398 0 4-1.790859 4-4zm-4.9999997 24h-2c-.5522842 0-1-.447716-1-1v-18.26l-11.1600002 8.94h.0000001c-.244208.183768-.53542.294706-.8399999.32h-.3600001.0000001c-.339104-.005641-.667888-.117567-.94-.32l-10.7-8.5v17.82c0 .552284-.447716 1-1 1h-2c-.552284 0-1-.447716-1-1v-22c0-.552284.447716-1 1-1h2.22c.451128.002617.888122.157679 1.24.44l11.26 9 11.28-9c.3518781-.282322.7888721-.437384 1.2400001-.44h2.7599999c.5522841 0 1 .447716 1 1v22c0 .552284-.4477159 1-1 1z" fill="#ff4343" transform="translate(-59 -164)"/></svg>