<svg height="32" viewBox="0 0 38 32" width="38" xmlns="http://www.w3.org/2000/svg"><path d="m255.944302 169.637567c-.980482 1.295722-2.165642 2.426001-3.509709 3.347168v1.034238l.000001.000234c.022067 12.670087-10.322452 22.958946-23.105076 22.980793-.120918 0-.241836-.00056-.362743-.002231h.000001c-3.584778.011864-7.123646-.799092-10.339412-2.369344-.173393-.075008-.285229-.244979-.284571-.4325v-.206845c0-.270019.220839-.488913.493257-.488913 3.523843-.11501 6.921961-1.32543 9.713584-3.459994h-.000001c-3.18949-.063632-6.059198-1.935567-7.379873-4.813906-.105611-.248902.012343-.535538.263455-.640218.072547-.030242.15134-.042838.229801-.036738.969355.096535 1.9484.007154 2.883652-.26326-3.520921-.724102-6.166501-3.62002-6.545133-7.164446-.021304-.269192.181588-.504534.453172-.525651.07846-.0061.157254.006496.229801.036738h-.000001c.944863.413054 1.96483.630609 2.997481.639347l.000001.000001c-3.085167-2.006158-4.417756-5.821949-3.244109-9.289334.189943-.528262.775968-.803879 1.308924-.615609.160209.056596.303683.151837.417473.277131 4.163235 4.389831 9.883586 7.0057 15.954946 7.296076-.155515-.6148-.232007-1.246617-.227657-1.880432v.000013c.077347-4.527366 3.842808-8.135351 8.4104-8.058686 2.208498.03707 4.310282.948129 5.83712 2.530197h.000001c1.580109-.298224 3.107686-.824047 4.534164-1.560757.10449-.064632.236995-.064632.341485 0 .065206.10357.065206.234907 0 .338478-.690938 1.567535-1.858184 2.882269-3.338966 3.760864 1.296699-.148979 2.570605-.452024 3.79428-.902608.103036-.069481.238449-.069481.341485 0 .161985.073424.233249.263105.159173.423664-.007466.016183-.016283.031721-.026359.04645z" fill="#00a8e8" fill-rule="evenodd" transform="translate(-218 -165)"/></svg>