<svg id="Layer_1" enable-background="new 0 0 480.061 480.061" height="512" viewBox="0 0 480.061 480.061" width="512" xmlns="http://www.w3.org/2000/svg" fill="#fff"><path d="m387.15 91.051c-9.75 9.89-15.12 23-15.12 36.9 0 59.037.014 54.965-.032 56.006-.255 5.786-8.968 5.496-8.968-.296v-35.6c0-13.842-11.758-24.984-25.8-23.93-26.556 1.998-52.865-5.729-74.21-22.81-12.248-9.802-30.524-5.401-36.92 9-.916 2.063-1.714 4.175-2.39 6.321-1.504 4.777-6.963 7.105-11.365 4.718-6.111-3.315-11.854-7.283-17.145-11.848-30.471-26.251-77.794-5.025-78.17 35.09v39.06c0 5.791-8.714 6.081-8.968.296-.046-1.035-.032 1.903-.032-42.906-.44-20.3 2.58-71.15 39.65-106.88 45.741-44.099 119.074-41.324 173.07-15.38 5.164 2.437 6.382 9.417 1.74 13.4 26.937 6.707 50.453 23.687 65.81 48.62 1.901 3.068 1.551 7.495-1.15 10.239zm-48.72 49.03c-30.052 2.269-60.492-6.339-85.4-26.27-4.074-3.255-10.162-1.807-12.31 3-2.728 6.141-4.054 12.898-3.729 19.746.257 5.426-4.969 9.517-10.181 7.985-15.488-4.555-29.774-12.319-42.06-22.91-20.144-17.37-51.459-3.4-51.72 23.12v66.66c0 56.416 47.083 105.77 107 105.77 58.72 0 106.54-47.54 107-106.16v-62.96c0-4.609-3.897-8.319-8.6-7.981zm-43.11 191.91c-1.217-1.238-2.276-2.505-3.198-3.787-2.082-2.895-5.876-3.984-9.216-2.736-26.945 10.072-57.63 10.503-85.745.002-3.34-1.247-7.127-.153-9.213 2.738-.908 1.258-1.948 2.503-3.138 3.723-2.14 2.19-2.84 5.45-1.73 8.32 8.55 22.22 31.08 39.63 57.07 39.63 25.63 0 49.21-16.03 56.94-39.84.92-2.82.3-5.94-1.77-8.05zm-126.685 15.281c-1.185-2.945-3.875-5.041-8.035-5.041-45.628 0-82.57 36.94-82.57 82.57v47.26c0 4.418 3.582 8 8 8h308c4.418 0 8-3.582 8-8v-47.26c0-43.737-34.436-82.105-82.887-82.572-3.439-.033-6.535 2.103-7.725 5.33-22.967 62.281-116.376 65.331-142.783-.287z"/></svg>