<svg id="Capa_1" enable-background="new 0 0 512 512" height="512" viewBox="0 0 512 512" width="512" xmlns="http://www.w3.org/2000/svg"><g><path d="m173.467 283.672 63.64 63.64c29.241 29.242 76.823 29.244 106.066 0l21.213-21.213c5.858-5.858 5.858-15.355 0-21.213l-42.427-42.426c-5.857-5.858-15.355-5.858-21.213 0-5.848 5.848-15.363 5.848-21.213 0l-21.214-21.213c-5.849-5.849-5.849-15.365 0-21.214 5.858-5.858 5.858-15.355 0-21.213l-42.426-42.426c-5.856-5.858-15.354-5.857-21.213 0l-21.214 21.214c-29.241 29.241-29.241 76.822.001 106.064zm21.213-84.852 10.607-10.607 23.03 23.03c-7.97 16.725-5.039 37.388 8.789 51.216l21.214 21.212c13.827 13.829 34.491 16.758 51.215 8.789l23.031 23.031-10.606 10.607c-17.547 17.546-46.094 17.546-63.641 0l-63.64-63.64c-17.544-17.544-17.544-46.093.001-63.638z"/><path d="m30.5 15v482c0 8.284 6.716 15 15 15h331c24.813 0 45-20.187 45-45v-45h15c24.813 0 45-20.187 45-45 0-6.958 0-233.088 0-240 0-24.813-20.187-45-45-45h-15v-47c0-24.813-20.187-45-45-45h-331c-8.284 0-15 6.716-15 15zm421 272c0 8.271-6.729 15-15 15h-15v-60h15c5.259 0 10.305-.915 15-2.58zm-15 105h-15v-60h15c5.259 0 10.305-.915 15-2.58v47.58c0 8.271-6.729 15-15 15zm0-270c8.271 0 15 6.729 15 15v60c0 8.271-6.729 15-15 15h-15v-90zm-45-77v422c0 8.271-6.729 15-15 15h-256v-452h256c8.271 0 15 6.729 15 15zm-331-15h30v452h-30z"/></g></svg>